<svg width="360" height="666" viewBox="0 0 360 666" fill="none" xmlns="http://www.w3.org/2000/svg">
<path d="M228.55 74C220.15 45.2 192.383 12.6667 179.55 0C155.55 18.4 136.216 57 129.55 74C126.383 86 125.95 114.3 149.55 131.5C173.15 148.7 199.383 138.667 209.55 131.5C219.383 124.333 236.95 102.8 228.55 74Z" fill="black"/>
<path d="M109 165.47C55 161.47 13.8333 183.804 0 195.47V270.47C41.2 223.67 103.833 221.304 130 225.97C143.667 228.137 182.7 240.67 229.5 273.47C276.3 306.27 336 308.137 360 304.97V246.47C301.6 246.87 233.667 209.637 207 190.97C196.833 184.137 163 169.47 109 165.47Z" fill="black"/>
<path d="M109 430.533C55 426.533 13.8333 448.867 0 460.533V535.533C41.2 488.733 103.833 486.367 130 491.033C143.667 493.2 182.7 505.733 229.5 538.533C276.3 571.333 336 573.2 360 570.033V511.533C301.6 511.933 233.667 474.7 207 456.033C196.833 449.2 163 434.533 109 430.533Z" fill="black"/>
<path d="M0 336.06H360V400.06H0V336.06Z" fill="black"/>
<path d="M0 601.123H360V665.123H0V601.123Z" fill="black"/>
</svg>
