<svg xmlns="http://www.w3.org/2000/svg" width="1523" height="476" viewBox="0 0 1523 476" fill="none">
<path d="M785.992 38.0501C781.673 23.2414 767.396 6.51308 760.797 0C748.456 9.46111 738.515 29.3089 735.087 38.0501C733.459 44.2204 733.236 58.772 745.371 67.6161C757.506 76.4602 770.995 71.3011 776.223 67.6161C781.279 63.931 790.311 52.8588 785.992 38.0501Z" fill="#cea35e"/>
<path d="M724.521 85.0837C696.755 83.027 675.587 94.5106 668.474 100.509V139.074C689.659 115.01 721.864 113.793 735.319 116.192C742.346 117.306 762.417 123.751 786.481 140.616C810.545 157.482 841.242 158.441 853.583 156.813V126.733C823.554 126.939 788.623 107.794 774.912 98.1955C769.684 94.6819 752.287 87.1405 724.521 85.0837Z" fill="#cea35e"/>
<path d="M724.521 221.376C696.755 219.319 675.587 230.803 668.474 236.802V275.366C689.659 251.302 721.864 250.085 735.319 252.485C742.346 253.599 762.417 260.043 786.481 276.909C810.545 293.774 841.242 294.734 853.583 293.106V263.026C823.554 263.231 788.623 244.086 774.912 234.488C769.684 230.974 752.287 223.433 724.521 221.376Z" fill="#cea35e"/>
<path d="M668.474 172.799H853.583V205.707H668.474V172.799Z" fill="#cea35e"/>
<path d="M668.474 309.092H853.583V342H668.474V309.092Z" fill="#cea35e"/>
<path d="M535.461 342.36V150.109H612.361V187.249H574.566V224.716H610.832V260.872H574.566V304.893H614.873V342.36H535.461Z" fill="#cea35e"/>
<path d="M448.074 342.359L424.371 150H460.964L475.055 280.861L487.617 150H524.21L500.506 342.359H448.074Z" fill="#cea35e"/>
<path d="M346.269 342.36V150.109H384.719V309.59H424.261V342.36H346.269Z" fill="#cea35e"/>
<path d="M254.076 342.36V150.109H330.976V187.249H293.182V224.716H329.447V260.872H293.182V304.893H333.489V342.36H254.076Z" fill="#cea35e"/>
<path d="M109.888 342.36L89.2434 150.109H126.82L137.415 271.467L148.229 150.109H184.058L194.326 271.467L204.594 150.109H242.607L221.634 342.36H175.538L165.925 249.839L156.749 342.36H109.888Z" fill="#cea35e"/>
<path d="M22.8297 342.36V187.03H0V150.109H84.1095V187.03H61.2798V342.36H22.8297Z" fill="#cea35e"/>
<path d="M1442.93 342.36V150.109H1519.83V187.249H1482.04V224.716H1518.31V260.872H1482.04V304.893H1522.35V342.36H1442.93Z" fill="#cea35e"/>
<path d="M1355.55 342.359L1331.84 150H1368.44L1382.53 280.861L1395.09 150H1431.68L1407.98 342.359H1355.55Z" fill="#cea35e"/>
<path d="M1253.74 342.36V150.109H1292.19V309.59H1331.74V342.36H1253.74Z" fill="#cea35e"/>
<path d="M1161.55 342.36V150.109H1238.45V187.249H1200.66V224.716H1236.92V260.872H1200.66V304.893H1240.96V342.36H1161.55Z" fill="#cea35e"/>
<path d="M1017.36 342.36L996.718 150.109H1034.29L1044.89 271.467L1055.7 150.109H1091.53L1101.8 271.467L1112.07 150.109H1150.08L1129.11 342.36H1083.01L1073.4 249.839L1064.22 342.36H1017.36Z" fill="#cea35e"/>
<path d="M930.304 342.36V187.03H907.474V150.109H991.584V187.03H968.754V342.36H930.304Z" fill="#cea35e"/>
<path d="M1167.37 475.273C1166.53 475.273 1165.81 474.972 1165.21 474.37C1164.61 473.767 1164.3 473.046 1164.3 472.205C1164.3 471.364 1164.61 470.642 1165.21 470.04C1165.81 469.438 1166.53 469.137 1167.37 469.137C1168.21 469.137 1168.94 469.438 1169.54 470.04C1170.14 470.642 1170.44 471.364 1170.44 472.205C1170.44 472.762 1170.3 473.273 1170.01 473.739C1169.74 474.205 1169.37 474.58 1168.91 474.864C1168.45 475.137 1167.94 475.273 1167.37 475.273Z" fill="#cea35e"/>
<path d="M1100.56 457.546C1100.56 461.227 1099.9 464.409 1098.57 467.091C1097.24 469.773 1095.41 471.841 1093.1 473.296C1090.78 474.75 1088.13 475.477 1085.15 475.477C1082.18 475.477 1079.53 474.75 1077.21 473.296C1074.89 471.841 1073.07 469.773 1071.74 467.091C1070.41 464.409 1069.74 461.227 1069.74 457.546C1069.74 453.864 1070.41 450.682 1071.74 448C1073.07 445.318 1074.89 443.25 1077.21 441.796C1079.53 440.341 1082.18 439.614 1085.15 439.614C1088.13 439.614 1090.78 440.341 1093.1 441.796C1095.41 443.25 1097.24 445.318 1098.57 448C1099.9 450.682 1100.56 453.864 1100.56 457.546ZM1096.47 457.546C1096.47 454.523 1095.97 451.972 1094.95 449.892C1093.95 447.813 1092.6 446.239 1090.88 445.171C1089.18 444.102 1087.27 443.568 1085.15 443.568C1083.04 443.568 1081.12 444.102 1079.41 445.171C1077.7 446.239 1076.35 447.813 1075.33 449.892C1074.33 451.972 1073.83 454.523 1073.83 457.546C1073.83 460.568 1074.33 463.119 1075.33 465.199C1076.35 467.279 1077.7 468.852 1079.41 469.921C1081.12 470.989 1083.04 471.523 1085.15 471.523C1087.27 471.523 1089.18 470.989 1090.88 469.921C1092.6 468.852 1093.95 467.279 1094.95 465.199C1095.97 463.119 1096.47 460.568 1096.47 457.546Z" fill="#cea35e"/>
<path d="M1004.76 451H1000.53C1000.28 449.784 999.841 448.716 999.216 447.796C998.603 446.875 997.853 446.102 996.966 445.477C996.091 444.841 995.12 444.364 994.052 444.046C992.984 443.727 991.87 443.568 990.711 443.568C988.597 443.568 986.682 444.102 984.966 445.171C983.262 446.239 981.904 447.813 980.893 449.892C979.893 451.972 979.393 454.523 979.393 457.546C979.393 460.568 979.893 463.119 980.893 465.199C981.904 467.279 983.262 468.852 984.966 469.921C986.682 470.989 988.597 471.523 990.711 471.523C991.87 471.523 992.984 471.364 994.052 471.046C995.12 470.727 996.091 470.256 996.966 469.631C997.853 468.994 998.603 468.216 999.216 467.296C999.841 466.364 1000.28 465.296 1000.53 464.091H1004.76C1004.44 465.875 1003.86 467.472 1003.02 468.881C1002.18 470.29 1001.13 471.489 999.881 472.477C998.631 473.455 997.228 474.199 995.671 474.71C994.126 475.222 992.472 475.477 990.711 475.477C987.734 475.477 985.086 474.75 982.768 473.296C980.449 471.841 978.626 469.773 977.296 467.091C975.967 464.409 975.302 461.227 975.302 457.546C975.302 453.864 975.967 450.682 977.296 448C978.626 445.318 980.449 443.25 982.768 441.796C985.086 440.341 987.734 439.614 990.711 439.614C992.472 439.614 994.126 439.869 995.671 440.381C997.228 440.892 998.631 441.642 999.881 442.631C1001.13 443.608 1002.18 444.801 1003.02 446.21C1003.86 447.608 1004.44 449.205 1004.76 451Z" fill="#cea35e"/>
<path d="M815.438 475V440.091H836.506V443.841H819.665V455.636H835.415V459.386H819.665V471.25H836.779V475H815.438Z" fill="#cea35e"/>
<path d="M728.918 475V440.091H733.145V471.25H749.372V475H728.918Z" fill="#cea35e"/>
<path d="M645.67 475H634.898V440.091H646.148C649.534 440.091 652.432 440.79 654.841 442.187C657.25 443.574 659.097 445.568 660.381 448.17C661.665 450.761 662.307 453.864 662.307 457.477C662.307 461.114 661.659 464.244 660.364 466.869C659.068 469.483 657.182 471.494 654.705 472.903C652.227 474.301 649.216 475 645.67 475ZM639.125 471.25H645.398C648.284 471.25 650.676 470.693 652.574 469.579C654.472 468.466 655.886 466.881 656.818 464.824C657.75 462.767 658.216 460.318 658.216 457.477C658.216 454.659 657.756 452.233 656.835 450.199C655.915 448.153 654.54 446.585 652.71 445.494C650.881 444.392 648.602 443.841 645.875 443.841H639.125V471.25Z" fill="#cea35e"/>
<path d="M566.919 440.091V475H562.828L543.805 447.591H543.464V475H539.237V440.091H543.328L562.419 467.568H562.76V440.091H566.919Z" fill="#cea35e"/>
<path d="M448.711 475H444.28L457.098 440.091H461.461L474.28 475H469.848L459.416 445.614H459.143L448.711 475ZM450.348 461.364H468.211V465.114H450.348V461.364Z" fill="#cea35e"/>
<path d="M380.929 451H376.701C376.451 449.784 376.014 448.716 375.389 447.796C374.775 446.875 374.025 446.102 373.139 445.477C372.264 444.841 371.292 444.364 370.224 444.046C369.156 443.727 368.042 443.568 366.883 443.568C364.77 443.568 362.855 444.102 361.139 445.171C359.434 446.239 358.076 447.813 357.065 449.892C356.065 451.972 355.565 454.523 355.565 457.546C355.565 460.568 356.065 463.119 357.065 465.199C358.076 467.279 359.434 468.852 361.139 469.921C362.855 470.989 364.77 471.523 366.883 471.523C368.042 471.523 369.156 471.364 370.224 471.046C371.292 470.727 372.264 470.256 373.139 469.631C374.025 468.994 374.775 468.216 375.389 467.296C376.014 466.364 376.451 465.296 376.701 464.091H380.929C380.61 465.875 380.031 467.472 379.19 468.881C378.349 470.29 377.304 471.489 376.054 472.477C374.804 473.455 373.4 474.199 371.843 474.71C370.298 475.222 368.645 475.477 366.883 475.477C363.906 475.477 361.258 474.75 358.94 473.296C356.622 471.841 354.798 469.773 353.468 467.091C352.139 464.409 351.474 461.227 351.474 457.546C351.474 453.864 352.139 450.682 353.468 448C354.798 445.318 356.622 443.25 358.94 441.796C361.258 440.341 363.906 439.614 366.883 439.614C368.645 439.614 370.298 439.869 371.843 440.381C373.4 440.892 374.804 441.642 376.054 442.631C377.304 443.608 378.349 444.801 379.19 446.21C380.031 447.608 380.61 449.205 380.929 451Z" fill="#cea35e"/>
<line x1="2.71122" y1="388.763" x2="1520.24" y2="388.763" stroke="#cea35e" stroke-width="4.47419" stroke-linecap="round" fill="#000000"/>
</svg>